<svg width="137" height="137" viewBox="0 0 137 137" fill="none" xmlns="http://www.w3.org/2000/svg">
<g id="Whatsapp">
<g id="Card" filter="url(#filter0_d_466_783)">
<rect x="20" y="20" width="97" height="97" rx="30" fill="white"/>
</g>
<path id="Vector" d="M58.535 81.8481C59.1207 81.6882 59.746 81.7707 60.2702 82.077L60.8772 82.4316C63.2828 83.8346 66.0189 84.5712 68.8037 84.5655C71.9212 84.5655 74.9688 83.641 77.5609 81.909C80.153 80.177 82.1733 77.7152 83.3664 74.835C84.5594 71.9548 84.8715 68.7855 84.2633 65.7279C83.6551 62.6702 82.1539 59.8616 79.9495 57.6572C77.7451 55.4528 74.9365 53.9515 71.8788 53.3433C68.8212 52.7351 65.6519 53.0473 62.7717 54.2403C59.8915 55.4333 57.4297 57.4537 55.6977 60.0458C53.9657 62.6379 53.0412 65.6854 53.0412 68.803C53.0412 71.6323 53.784 74.3455 55.1771 76.7315L55.5315 77.3396C55.8367 77.8632 55.9188 78.4878 55.7598 79.0725C55.301 80.7594 56.8485 82.3083 58.535 81.8481ZM57.0006 86.3527C53.5103 87.305 50.3072 84.1013 51.2573 80.6103C51.5867 79.3998 51.3913 78.1184 50.8705 76.9772C49.7028 74.4184 49.096 71.6309 49.1006 68.803C49.1006 57.9209 57.9217 49.0999 68.8037 49.0999C79.6858 49.0999 88.5068 57.9209 88.5068 68.803C88.5068 79.685 79.6858 88.5061 68.8037 88.5061C65.9775 88.5106 63.1917 87.9044 60.6342 86.7381C59.4925 86.2174 58.2112 86.0224 57.0006 86.3527ZM61.6919 59.5573C61.6925 59.5579 61.6934 59.5582 61.6943 59.5582C61.9578 59.5386 62.2234 59.5386 62.4869 59.5504C62.5933 59.5583 62.6997 59.5701 62.8061 59.5819C63.1194 59.6174 63.4642 59.8085 63.5804 60.0725C64.1676 61.4044 64.739 62.7462 65.2907 64.092C65.4128 64.3914 65.3399 64.7756 65.1074 65.15C64.9475 65.4032 64.7746 65.6478 64.5892 65.883C64.5027 65.9939 64.3776 66.1409 64.2569 66.2792C64.0138 66.5575 63.6751 66.8571 63.7676 67.2149C63.7952 67.3252 63.8858 67.4848 63.9686 67.6188L64.0848 67.806C64.5892 68.6473 65.267 69.5005 66.0945 70.3043C66.331 70.5329 66.5615 70.7674 66.8098 70.9861C67.7319 71.7998 68.7761 72.4638 69.9032 72.9564L69.913 72.9603C70.0805 73.0332 70.1652 73.0726 70.4095 73.1771C70.5317 73.2283 70.6578 73.2736 70.7859 73.3071C70.9182 73.3408 71.0576 73.3345 71.1863 73.2889C71.315 73.2433 71.4273 73.1605 71.509 73.051C72.9008 71.3649 73.0584 71.2171 73.0762 71.2109C73.0769 71.2107 73.0773 71.2112 73.0773 71.2119C73.0773 71.2129 73.0786 71.2135 73.0793 71.2128C73.178 71.1212 73.295 71.0517 73.4226 71.0089C73.5511 70.9657 73.6873 70.9506 73.8221 70.9644C73.9403 70.9723 74.0605 70.994 74.1709 71.0432C75.0366 71.4394 76.3582 72.019 76.7886 72.2073C76.883 72.2486 76.9763 72.2898 77.0704 72.332L78.076 72.783C78.2691 72.8756 78.4445 73.0943 78.4504 73.3051C78.4582 73.4371 78.4701 73.6499 78.4248 74.0401C78.3617 74.5504 78.208 75.1631 78.0543 75.4843C77.9491 75.7035 77.8094 75.9044 77.6406 76.0793C77.4418 76.2881 77.2241 76.478 76.9904 76.6468C76.9095 76.7076 76.8274 76.7667 76.7441 76.8241C76.499 76.9796 76.2472 77.1242 75.9894 77.2576C75.4822 77.527 74.9219 77.6817 74.3482 77.7107C73.9837 77.7304 73.6192 77.758 73.2527 77.7383C72.4984 77.7383 71.7645 77.4816 71.048 77.2458C68.6632 76.4607 66.4578 75.1999 64.5676 73.5357C64.1223 73.1436 63.7105 72.7219 63.2888 72.3022C61.5352 70.5585 60.2112 68.6769 59.4073 66.8996C58.9958 66.0274 58.7736 65.0779 58.7551 64.1136C58.747 62.9174 59.1381 61.7525 59.8664 60.8035C60.0102 60.6183 60.1462 60.4252 60.3806 60.2026C60.6309 59.9661 60.7885 59.84 60.9599 59.7533C61.1874 59.6393 61.4356 59.5723 61.6895 59.5564C61.6904 59.5563 61.6913 59.5567 61.6919 59.5573Z" fill="#1C1C27"/>
</g>
<defs>
<filter id="filter0_d_466_783" x="0" y="0" width="137" height="137" filterUnits="userSpaceOnUse" color-interpolation-filters="sRGB">
<feFlood flood-opacity="0" result="BackgroundImageFix"/>
<feColorMatrix in="SourceAlpha" type="matrix" values="0 0 0 0 0 0 0 0 0 0 0 0 0 0 0 0 0 0 127 0" result="hardAlpha"/>
<feOffset/>
<feGaussianBlur stdDeviation="10"/>
<feComposite in2="hardAlpha" operator="out"/>
<feColorMatrix type="matrix" values="0 0 0 0 0 0 0 0 0 0 0 0 0 0 0 0 0 0 0.1 0"/>
<feBlend mode="normal" in2="BackgroundImageFix" result="effect1_dropShadow_466_783"/>
<feBlend mode="normal" in="SourceGraphic" in2="effect1_dropShadow_466_783" result="shape"/>
</filter>
</defs>
</svg>
