<svg width="137" height="137" viewBox="0 0 137 137" fill="none" xmlns="http://www.w3.org/2000/svg">
<g id="Instagram">
<g id="Card" filter="url(#filter0_d_466_786)">
<rect x="20" y="20" width="97" height="97" rx="30" fill="white"/>
</g>
<path id="Vector" d="M68.8027 62.8923C67.2351 62.8923 65.7316 63.515 64.6231 64.6236C63.5146 65.7321 62.8918 67.2355 62.8918 68.8032C62.8918 70.3709 63.5146 71.8744 64.6231 72.9829C65.7316 74.0914 67.2351 74.7142 68.8027 74.7142C70.3704 74.7142 71.8739 74.0914 72.9824 72.9829C74.0909 71.8744 74.7137 70.3709 74.7137 68.8032C74.7137 67.2355 74.0909 65.7321 72.9824 64.6236C71.8739 63.515 70.3704 62.8923 68.8027 62.8923ZM-nan -nanL68.8027 58.9517C71.4155 58.9517 73.9213 59.9896 75.7688 61.8371C77.6164 63.6846 78.6543 66.1904 78.6543 68.8032C78.6543 71.416 77.6164 73.9218 75.7688 75.7693C73.9213 77.6169 71.4155 78.6548 68.8027 78.6548C66.1899 78.6548 63.6842 77.6169 61.8366 75.7693C59.9891 73.9218 58.9512 71.416 58.9512 68.8032C58.9512 66.1904 59.9891 63.6846 61.8366 61.8371C63.6842 59.9896 66.1899 58.9517 68.8027 58.9517L-nan -nanZM-nan -nanL81.6098 58.4591C81.6098 59.1123 81.3503 59.7387 80.8884 60.2006C80.4265 60.6625 79.8001 60.922 79.1469 60.922C78.4937 60.922 77.8672 60.6625 77.4053 60.2006C76.9435 59.7387 76.684 59.1123 76.684 58.4591C76.684 57.8059 76.9435 57.1794 77.4053 56.7176C77.8672 56.2557 78.4937 55.9962 79.1469 55.9962C79.8001 55.9962 80.4265 56.2557 80.8884 56.7176C81.3503 57.1794 81.6098 57.8059 81.6098 58.4591L-nan -nanZM68.8027 53.0407C63.9282 53.0407 63.1322 53.0545 60.8643 53.155C59.3196 53.2279 58.2832 53.4348 57.3217 53.8091C56.4666 54.1402 55.8499 54.5362 55.1938 55.1943C54.5771 55.7901 54.1029 56.5175 53.8067 57.3222C53.4323 58.2877 53.2254 59.3221 53.1545 60.8648C53.0521 63.0401 53.0402 63.8006 53.0402 68.8032C53.0402 73.6778 53.054 74.4738 53.1545 76.7416C53.2274 78.2844 53.4343 79.3227 53.8067 80.2823C54.1416 81.1394 54.5357 81.7561 55.1898 82.4102C55.8538 83.0722 56.4705 83.4683 57.3178 83.7953C58.2911 84.1717 59.3275 84.3805 60.8643 84.4514C63.0396 84.5539 63.8001 84.5657 68.8027 84.5657C73.6773 84.5657 74.4733 84.5519 76.7411 84.4514C78.2819 84.3785 79.3203 84.1717 80.2818 83.7993C81.1349 83.4663 81.7556 83.0703 82.4097 82.4161C83.0737 81.7521 83.4697 81.1354 83.7968 80.2882C84.1712 79.3168 84.38 78.2785 84.451 76.7416C84.5534 74.5664 84.5652 73.8058 84.5652 68.8032C84.5652 63.9287 84.5514 63.1327 84.451 60.8648C84.3781 59.324 84.1712 58.2837 83.7968 57.3222C83.4999 56.5183 83.0266 55.7912 82.4117 55.1943C81.8161 54.5773 81.0886 54.103 80.2837 53.8072C79.3183 53.4328 78.2819 53.2259 76.7411 53.155C74.5659 53.0525 73.8054 53.0407 68.8027 53.0407ZM68.8027 49.1001C74.1561 49.1001 74.824 49.1198 76.9244 49.2183C79.0227 49.3168 80.4512 49.6459 81.7083 50.1345C83.0087 50.635 84.1042 51.3128 85.1997 52.4063C86.2016 53.3912 86.9768 54.5827 87.4714 55.8977C87.9581 57.1528 88.2891 58.5832 88.3876 60.6816C88.4802 62.7819 88.5059 63.4499 88.5059 68.8032C88.5059 74.1566 88.4862 74.8245 88.3876 76.9249C88.2891 79.0232 87.9581 80.4517 87.4714 81.7088C86.9782 83.0245 86.2028 84.2162 85.1997 85.2002C84.2144 86.2017 83.0231 86.9769 81.7083 87.4719C80.4532 87.9586 79.0227 88.2896 76.9244 88.3881C74.824 88.4807 74.1561 88.5063 68.8027 88.5063C63.4494 88.5063 62.7815 88.4866 60.6811 88.3881C58.5827 88.2896 57.1542 87.9586 55.8972 87.4719C54.5817 86.9783 53.39 86.2029 52.4058 85.2002C51.4037 84.2154 50.6284 83.0239 50.134 81.7088C49.6454 80.4537 49.3163 79.0232 49.2178 76.9249C49.1252 74.8245 49.0996 74.1566 49.0996 68.8032C49.0996 63.4499 49.1193 62.7819 49.2178 60.6816C49.3163 58.5812 49.6454 57.1547 50.134 55.8977C50.6271 54.5819 51.4025 53.3901 52.4058 52.4063C53.3903 51.4038 54.5819 50.6285 55.8972 50.1345C57.1542 49.6459 58.5808 49.3168 60.6811 49.2183C62.7815 49.1257 63.4494 49.1001 68.8027 49.1001Z" fill="#1C1C27"/>
</g>
<defs>
<filter id="filter0_d_466_786" x="0" y="0" width="137" height="137" filterUnits="userSpaceOnUse" color-interpolation-filters="sRGB">
<feFlood flood-opacity="0" result="BackgroundImageFix"/>
<feColorMatrix in="SourceAlpha" type="matrix" values="0 0 0 0 0 0 0 0 0 0 0 0 0 0 0 0 0 0 127 0" result="hardAlpha"/>
<feOffset/>
<feGaussianBlur stdDeviation="10"/>
<feComposite in2="hardAlpha" operator="out"/>
<feColorMatrix type="matrix" values="0 0 0 0 0 0 0 0 0 0 0 0 0 0 0 0 0 0 0.1 0"/>
<feBlend mode="normal" in2="BackgroundImageFix" result="effect1_dropShadow_466_786"/>
<feBlend mode="normal" in="SourceGraphic" in2="effect1_dropShadow_466_786" result="shape"/>
</filter>
</defs>
</svg>
