<svg width="137" height="137" viewBox="0 0 137 137" fill="none" xmlns="http://www.w3.org/2000/svg">
<g id="VK">
<g id="Card" filter="url(#filter0_d_466_789)">
<rect x="20" y="20" width="97" height="97" rx="30" fill="white"/>
</g>
<path id="Vector" d="M41.8252 55.3168C41.8252 53.4872 42.856 52.5007 44.9175 52.3572L52.8617 52.4111C53.3949 52.4111 53.7503 52.6801 53.928 53.2182C54.7455 55.9087 55.6608 58.2314 56.6738 60.1865C57.5848 61.9446 58.7472 63.942 60.1612 66.1787C60.482 66.6862 60.7387 67.4238 61.339 67.4238C61.4919 67.4238 61.6246 67.3764 61.7372 67.2817C61.8908 67.1524 61.952 66.9491 62.0044 66.7553C62.0582 66.5561 62.086 66.3508 62.0872 66.1445L62.1388 57.1463C62.1388 56.5006 61.9877 56.0701 61.6856 55.8548C61.3834 55.6396 60.8236 55.4782 60.0061 55.3706C59.3663 55.2629 59.0464 54.8683 59.0464 54.1868C59.0464 53.9672 59.1301 53.7572 59.2103 53.5527C60.0432 51.4284 62.139 50.3663 65.4977 50.3663L68.4834 50.3125C69.8341 50.3125 70.9538 50.6533 71.8424 51.3349C72.731 52.0165 73.1753 53.0926 73.1753 54.5634V66.0225C73.1753 66.497 73.3939 67.0472 73.8684 67.0472C74.4015 67.0472 74.8636 66.7243 75.2546 66.0786C78.9757 60.8209 81.071 57.2203 81.5404 55.2768C81.5858 55.0888 81.62 54.8982 81.7059 54.7249C81.9547 54.1868 82.3635 53.7204 82.9322 53.3258C83.308 53.065 83.6528 52.8591 83.9666 52.708C84.2643 52.5646 84.5744 52.4111 84.9049 52.4111H93.1689L93.7021 52.4649C94.413 52.4649 94.9639 52.8057 95.3549 53.4872C95.4971 53.7025 95.5948 53.9357 95.6482 54.1868C95.7015 54.4379 95.737 54.689 95.7548 54.9401C95.7726 55.1912 95.7814 55.3347 95.7814 55.3706C95.7814 55.6212 95.7628 55.8718 95.7112 56.1172C95.4248 57.4804 94.8173 58.9265 93.8887 60.4555C92.8757 62.1236 91.5872 63.9262 90.0233 65.8634C88.4593 67.8005 87.4818 69.074 87.0909 69.6838C86.771 70.1143 86.611 70.5089 86.611 70.8676C86.611 71.1546 86.7532 71.4774 87.0375 71.8362L94.8217 81.7371C95.2483 82.311 95.4615 82.9388 95.4615 83.6204C95.4615 84.4455 95.1416 85.127 94.5019 85.6651C93.8621 86.2032 93.0979 86.5081 92.2092 86.5799L91.3029 86.6337H83.1988C83.1632 86.6337 83.0921 86.6427 82.9855 86.6606C82.8789 86.6785 82.8078 86.6875 82.7722 86.6875C81.9903 86.6875 81.2616 86.3467 80.5863 85.6651C80.3374 85.3781 78.6669 83.2617 75.5745 79.3156C75.2858 78.9077 74.703 79.1297 74.5924 79.6171C74.4964 80.0407 74.3883 80.5321 74.2683 81.0913C74.0372 82.1675 73.8684 82.9388 73.7617 83.4051L73.6018 84.3199C73.326 85.2942 72.8147 85.9661 72.068 86.3355C71.6214 86.5565 71.113 86.5979 70.6161 86.6337H65.3911C62.4409 86.6337 59.4996 85.2705 56.5672 82.5442C53.6348 79.8179 50.9956 76.2934 48.6497 71.9707C46.3038 67.648 44.1178 62.6169 42.0918 56.8772C41.9141 56.4109 41.8252 55.8907 41.8252 55.3168ZM73.8684 69.2533C73.122 69.2533 72.4466 69.0471 71.8424 68.6345C71.2381 68.222 70.936 67.657 70.936 66.9395V54.5634C70.936 53.846 70.7583 53.3348 70.4028 53.0299C70.0474 52.7249 69.4253 52.5725 68.5367 52.5725L65.4977 52.6801C63.8891 52.6801 63.9287 54.5754 64.2747 56.1464C64.3436 56.4591 64.3781 56.7924 64.3781 57.1463V66.6167C64.307 67.5135 63.9515 68.2579 63.3117 68.8498C62.6719 69.4417 61.961 69.7376 61.1791 69.7376C60.1127 69.7376 59.2952 69.2175 58.7265 68.1771C55.9541 63.9442 53.8925 59.9264 52.5418 56.1239C52.2543 55.2857 51.469 54.7204 50.583 54.7136L44.9709 54.671C44.5088 54.671 44.2511 54.6979 44.1978 54.7518C44.1445 54.8056 44.1178 54.958 44.1178 55.2091C44.1178 55.8944 44.3444 56.5542 44.583 57.1966L45.3441 59.2448C48.3298 67.0292 51.5732 73.1635 55.0743 77.6476C58.5754 82.1317 62.0144 84.3737 65.3911 84.3737H70.7227C70.936 84.3737 71.0959 84.3109 71.2026 84.1854C71.3092 84.0598 71.3981 83.8177 71.4691 83.459L71.5758 82.9209L72.2754 79.6507C72.4838 78.6765 72.634 77.6019 73.3352 76.8942C73.7262 76.4996 74.1883 76.3023 74.7214 76.3023C75.5745 76.3023 76.4453 76.8225 77.334 77.8628L81.8659 83.6742C82.1502 84.1405 82.4523 84.3737 82.7722 84.3737H91.5694C92.6358 84.3737 93.1689 84.1047 93.1689 83.5666C93.1689 83.3872 93.1156 83.2078 93.009 83.0285L85.2781 73.289C84.6739 72.5357 84.3717 71.7286 84.3717 70.8676C84.3717 70.0067 84.6561 69.1816 85.2248 68.3924C85.6869 67.6749 86.5844 66.4822 87.9173 64.8141C89.2502 63.146 90.4143 61.5855 91.4095 60.1327C92.4047 58.6798 93.0623 57.3615 93.3822 56.1777L93.4627 55.8257C93.5141 55.6009 93.4888 55.359 93.4888 55.1284C93.4888 54.8845 93.2707 54.7249 93.0268 54.7249H85.9329C85.3595 54.7249 84.7524 54.807 84.302 55.1617C83.908 55.472 83.7088 55.9378 83.559 56.4165L83.4653 56.7158C82.7043 58.8358 80.8872 61.9426 78.0141 66.0362C77.008 67.4697 75.8836 69.1276 74.1361 69.2445C74.0479 69.2504 73.9587 69.2533 73.8684 69.2533Z" fill="#1C1C27"/>
</g>
<defs>
<filter id="filter0_d_466_789" x="0" y="0" width="137" height="137" filterUnits="userSpaceOnUse" color-interpolation-filters="sRGB">
<feFlood flood-opacity="0" result="BackgroundImageFix"/>
<feColorMatrix in="SourceAlpha" type="matrix" values="0 0 0 0 0 0 0 0 0 0 0 0 0 0 0 0 0 0 127 0" result="hardAlpha"/>
<feOffset/>
<feGaussianBlur stdDeviation="10"/>
<feComposite in2="hardAlpha" operator="out"/>
<feColorMatrix type="matrix" values="0 0 0 0 0 0 0 0 0 0 0 0 0 0 0 0 0 0 0.1 0"/>
<feBlend mode="normal" in2="BackgroundImageFix" result="effect1_dropShadow_466_789"/>
<feBlend mode="normal" in="SourceGraphic" in2="effect1_dropShadow_466_789" result="shape"/>
</filter>
</defs>
</svg>
